<svg width="105" height="105" viewBox="0 0 105 105" fill="none" xmlns="http://www.w3.org/2000/svg">
<circle cx="52.5" cy="52.5" r="52.5" fill="#D9D9D9"/>
<circle cx="52.5" cy="52.5" r="50.5" stroke="white" stroke-width="4"/>
<circle cx="36" cy="44" r="6" fill="#2A0F45"/>
<circle cx="68" cy="44" r="6" fill="#2A0F45"/>
<circle cx="53" cy="59" r="6" fill="#FF5522"/>
<path d="M71 68.3333C69.2307 70.782 65.8765 75.5293 62.5493 76.9371C59.222 78.3449 55.4046 79.0585 51.5338 78.9963C47.6629 78.934 43.8948 78.0985 40.6604 76.5853C37.426 75.072 34.6119 70.8363 33 68.3333L37.3429 67C38.5732 68.9104 40.8762 72.5298 43.3449 73.6848C45.8136 74.8398 48.6896 75.4775 51.6441 75.525C54.5986 75.5725 57.5123 75.0278 60.0519 73.9533C62.5915 72.8788 65.8495 68.8689 67.2 67L71 68.3333Z" fill="#2A0F45"/>
</svg>
