<svg width="105" height="105" viewBox="0 0 105 105" fill="none" xmlns="http://www.w3.org/2000/svg">
<circle cx="52.5" cy="52.5" r="52.5" fill="#A44D8D"/>
<circle cx="52.5" cy="52.5" r="50.5" stroke="white" stroke-width="4"/>
<circle cx="36" cy="44" r="6" fill="#2A0F45"/>
<ellipse cx="53" cy="71.5" rx="8" ry="7.5" fill="#2A0F45"/>
<circle cx="68" cy="44" r="6" fill="#2A0F45"/>
<path d="M55.5 40V30.5V24L51.5 17L48 19L40.5 22.5L32.5 26L20 29.5L22 36L22.4545 37L24.5 41.5L32.5 51L40 52.5L46 51.5L51 49.5L55 45.5L55.5 40Z" fill="#1A1A1A"/>
<path d="M80.5 12.5C71.7 14.1 60.1667 19.5 55.5 22V24V30.5L57.5 27L82.5 18V15L80.5 12.5Z" fill="#1A1A1A"/>
<path d="M24.5 41.5L22.4545 37L16.5 40L11.5 43L8 45.5L4 49.5V54L6.5 57L8 51.5L12.5 47.5L18.5 44L24.5 41.5Z" fill="#1A1A1A"/>
<path d="M55.5 30.5L57.5 27L82.5 18V15L80.5 12.5C71.7 14.1 60.1667 19.5 55.5 22V24M55.5 30.5V40L55 45.5L51 49.5L46 51.5L40 52.5L32.5 51L24.5 41.5M55.5 30.5V24M24.5 41.5L22.4545 37M24.5 41.5L18.5 44L12.5 47.5L8 51.5L6.5 57L4 54V49.5L8 45.5L11.5 43L16.5 40L22.4545 37M55.5 24L51.5 17L48 19L40.5 22.5L32.5 26L20 29.5L22 36L22.4545 37" stroke="#141414"/>
</svg>
