<svg width="105" height="105" viewBox="0 0 105 105" fill="none" xmlns="http://www.w3.org/2000/svg">
<circle cx="52.5" cy="52.5" r="52.5" fill="#A56059"/>
<circle cx="52.5" cy="52.5" r="50.5" stroke="white" stroke-width="4"/>
<circle cx="36" cy="44" r="6" fill="#2A0F45"/>
<circle cx="68" cy="44" r="6" fill="#2A0F45"/>
<path d="M71 68.3333C69.2307 70.782 65.8765 75.5293 62.5493 76.9371C59.222 78.3449 55.4046 79.0585 51.5338 78.9963C47.6629 78.934 43.8948 78.0985 40.6604 76.5853C37.426 75.072 34.6119 70.8363 33 68.3333L37.3429 67C38.5732 68.9104 40.8762 72.5298 43.3449 73.6848C45.8136 74.8398 48.6896 75.4775 51.6441 75.525C54.5986 75.5725 57.5123 75.0278 60.0519 73.9533C62.5915 72.8788 65.8495 68.8689 67.2 67L71 68.3333Z" fill="#2A0F45"/>
<path d="M79 46V43.5L78.75 42.625L78.5 41.75L78 40L77.5 38.5L76 36.5L72.5 35.5L69.5 34.5H66H62.5L59.5 35.5L57 36.5L55 38.5L54.5 40L54.25 40.75L54 41.5L55 45L57 48.5L59.5 52L63 54.5L67.5 55L71 54.5L73.5 53L76 51L77.5 48.5L79 46Z" fill="#1A1A1A"/>
<path d="M40.5 34.5H36.5L31.5 35.5L28.5 36.5L26.5 38.5L25.5 41.5L25.4583 41.75L25.2292 43.125L25 44.5L25.5 47L26.5 48.5L28 51L29.5 53L31 53.5L33.5 54.5H35.5H38.5H40.5L43 53L45 51L46.5 49.5L47.5 48L48.5 46L49.5 43.5L50 41.5V40.75V40L49.5 38.5L47.5 36.5L45 35.5L43 34.5H40.5Z" fill="#1A1A1A"/>
<path d="M62.5 34.5L59.5 35.5L57 36.5L55 38.5L54.5 40M62.5 34.5H66H69.5L72.5 35.5L76 36.5L77.5 38.5L78 40L78.5 41.75L78.75 42.625L79 43.5V46L77.5 48.5L76 51L73.5 53L71 54.5L67.5 55L63 54.5L59.5 52L57 48.5L55 45L54 41.5L54.25 40.75M62.5 34.5H43M50 40L49.5 38.5L47.5 36.5L45 35.5L43 34.5M50 40H54.5M50 40V40.75M43 34.5H40.5H36.5L31.5 35.5L28.5 36.5L26.5 38.5L25.5 41.5L25.4583 41.75L25.2292 43.125M54.5 40L54.25 40.75M54.25 40.75H50M50 40.75V41.5L49.5 43.5L48.5 46L47.5 48L46.5 49.5L45 51L43 53L40.5 54.5H38.5H35.5H33.5L31 53.5L29.5 53L28 51L26.5 48.5L25.5 47L25 44.5L25.2292 43.125M25.2292 43.125L25 43.5" stroke="#151515"/>
</svg>
