<svg width="426" height="270" viewBox="0 0 426 270" fill="none" xmlns="http://www.w3.org/2000/svg">
<path d="M281 159H264V157H281V159ZM237.474 94H249.728L251.128 93.3701L251.411 94H252V95.3105L278.692 154.722L276.867 155.541L250.117 96H237V95.8262L209.557 155H223V157H207V156.5H161V95H208.5V107H177.5V118H205V131.5H176.5V144.5H209.5V150.369L235.967 93.3008L237.474 94ZM326 107H310.152L307.815 108.542L307.316 156.011L307.307 157H291.178V108.002L289.828 107H273V95H326V107ZM138.573 94.6807L143.573 98.1807L143.665 98.2451L143.74 98.3271L148.74 103.827L148.861 103.961L148.929 104.129L150.929 109.129L151 109.308V116.266L150.868 116.496L148.802 120.112L146.168 122.746L146.125 122.781L144.497 124.083L146.164 125.75L148.625 127.719L148.712 127.788L148.781 127.875L150.75 130.336L152.5 132.086V143.815L152.319 144.073L148.819 149.073L148.795 149.107L148.769 149.141L146.269 152.141L146.155 152.275L146.004 152.364L140.004 155.864L139.771 156H99V94.5H138.315L138.573 94.6807ZM250.671 128H252V130H236V129.043L230.332 142H254.707L256.417 141.315L261.752 154.652L259.895 155.396L255.337 144H229.457L224.408 155.541L222.575 154.74L228 142.34V142H228.148L241.247 112.061L242.104 112.435L243.08 111.973L250.671 128ZM275 105H290.489L290.755 105.197L292.774 106.697L293.178 106.997V155H298.5V101.5H275V105ZM299.5 155H305.327L305.822 107.989L305.827 107.458L306.271 107.165L309.301 105.165L309.551 105H324V101.5H299.5V155ZM163 154.5H207.5V151H169.771L169.62 150.825L166.62 147.325L166.5 147.185V103.756L171.193 100.105L171.328 100H206.5V97H163V154.5ZM101 154H139.229L144.844 150.725L147.208 147.886L150.5 143.185V132.914L149.254 131.668L149.219 131.625L147.288 129.211L144.875 127.281L144.832 127.246L141.503 123.917L142.375 123.219L144.836 121.25L147.198 118.888L149 115.734V109.692L147.139 105.039L142.333 99.7539L137.685 96.5H101V154ZM243 103L243.447 102.776L260.077 136.035L261.081 138.044L268.447 152.776L267.553 153.224L259.32 136.759H243V135.759H258.82L242.99 104.1L218.443 151.231L217.557 150.769L242.557 102.769L243 103ZM167.5 130.271V146.814L170.23 150H207.5V146.5H174.5V129.5H203V125.5H174.857L167.5 130.271ZM136 135.764V138.192L135.929 138.371L134.929 140.871L134.677 141.5H114V133H134.618L136 135.764ZM116 139.5H133.323L134 137.807V136.236L133.382 135H116V139.5ZM167.5 129.078L173.891 124.934L167.5 119.129V129.078ZM236.456 128H248.458L242.219 114.828L236.456 128ZM167.5 104.244V117.778L174.902 124.5H203V120H175.5V105H206.5V101H171.671L167.5 104.244ZM135.5 110.764V113.192L135.429 113.371L134.429 115.871L134.177 116.5H113.5V108H134.118L135.5 110.764ZM115.5 114.5H132.823L133.5 112.807V111.236L132.882 110H115.5V114.5ZM275 100.5H324V97H275V100.5ZM217.5 0C243.181 0 264 20.8188 264 46.5C264 72.1812 243.181 93 217.5 93C191.819 93 171 72.1812 171 46.5C171 20.8188 191.819 0 217.5 0ZM217.5 2.5C193.199 2.5 173.5 22.1995 173.5 46.5C173.5 70.8005 193.199 90.5 217.5 90.5C241.801 90.5 261.5 70.8005 261.5 46.5C261.5 22.1995 241.801 2.5 217.5 2.5ZM217.5 5C233.494 5 247.372 14.0491 254.301 27.3057L254.811 26.9785C258.424 33.2391 260.221 40.4815 259.979 47.8096L259.949 48.4961C259.592 55.5799 257.339 62.417 253.446 68.209L253.054 67.9141C245.788 79.9508 232.585 88 217.5 88C202.415 88 189.211 79.9511 181.945 67.9141L181.554 68.209C177.661 62.417 175.408 55.5799 175.051 48.4961L175.021 47.8096C174.779 40.4815 176.576 33.2391 180.189 26.9785L180.698 27.3057C187.627 14.0489 201.506 5 217.5 5ZM217.5 6C195.132 6 177 24.1325 177 46.5C177 68.8675 195.132 87 217.5 87C239.868 87 258 68.8675 258 46.5C258 24.1325 239.868 6 217.5 6ZM104.353 14.9775L122.5 44.5859L140.647 14.9775L140.94 14.5H159V84H140.5V48.0332L126.352 71.0244L126.059 71.5H115.923L115.634 71L102.5 48.2344V84H85.5V14.5H104.06L104.353 14.9775ZM380.108 10.6426C387.211 8.3459 394.816 8.46051 401.854 10.9697C408.891 13.479 415.006 18.2565 419.338 24.6299L417.864 25.7471C417.819 25.6801 417.772 25.6144 417.726 25.5479L410.363 33.3438L410.044 33.6816L409.684 33.3867L405.023 29.5732L404.984 29.6221C402.043 26.8508 398.418 25.0442 394.542 24.4189C390.667 23.7938 386.705 24.3759 383.131 26.0957C379.556 27.8158 376.52 30.6012 374.387 34.1182C372.253 37.6352 371.111 41.7359 371.099 45.9287C371.086 50.1215 372.202 54.2298 374.314 57.7617C376.427 61.2935 379.445 64.0997 383.009 65.8447C386.573 67.5898 390.531 68.1996 394.41 67.6016C397.782 67.0817 400.969 65.6672 403.688 63.5H403.65V55.8496H390.15V43.1504H419.918L419.848 44.0654L417.863 69.8604L418.11 70.0713C413.442 76.1735 407.078 80.5749 399.917 82.6562C392.756 84.7375 385.157 84.3934 378.19 81.6729C371.224 78.9522 365.24 73.9919 361.082 67.4902C356.925 60.9886 354.803 53.2733 355.015 45.4307C355.226 37.5881 357.761 30.0131 362.263 23.7725C366.764 17.5317 373.006 12.9393 380.108 10.6426ZM49 13.5713L79.8242 82.1797L78 83H59V82.3857L53.6465 69H25.125L19 83H0V81H0.463867L32 13H49V13.5713ZM298.313 13.4189L325.515 51.5H326.5V13H344V83H327.004L326.704 82.6045L298.5 45.4688V83H281V13H298.015L298.313 13.4189ZM401.273 12.7842C394.596 10.4032 387.379 10.2953 380.64 12.4746C373.9 14.6539 367.978 19.0109 363.706 24.9326C359.434 30.8545 357.028 38.0432 356.827 45.4854C356.626 52.9273 358.64 60.2485 362.585 66.418C366.53 72.5873 372.208 77.2942 378.818 79.876C385.429 82.4576 392.64 82.7844 399.436 80.8096C405.971 78.9101 411.806 74.973 416.184 69.5234L418.082 44.8496H391.85V49H412V67H411.907L412.143 67.2256L411.752 67.6543C407.671 72.0368 402.412 75.0603 396.648 76.3301L396.09 76.4473C390.312 77.6001 384.328 76.9406 378.909 74.5469C373.316 72.0759 368.598 67.8779 365.401 62.5273C362.305 57.3439 360.783 51.3244 361.025 45.2461L361.054 44.6582C361.41 38.5767 363.519 32.7489 367.103 27.9238L367.454 27.4609C371.133 22.7013 376.102 19.1925 381.72 17.3818L382.266 17.2119C388.106 15.4565 394.329 15.6116 400.082 17.6543C405.616 19.6193 410.454 23.2399 413.987 28.0479L417.135 24.7158C413.08 19.1837 407.566 15.0278 401.273 12.7842ZM87.5 82H93.5V20.1953L94.4287 21.7432L119.783 64H124.202L147.061 21.7617L147.926 20.1631L148 21.9795L150.439 82H157V16.5H142.06L123.353 47.0225L122.5 48.4141L121.647 47.0225L102.94 16.5H87.5V82ZM94.5 82H100.5V40.7656L102.366 44L117.078 69.5H124.941L140.648 43.9756L142.5 40.9668V82H149.438L147.073 23.8369L124.939 64.7383L124.798 65H119.217L119.071 64.7568L94.5 23.8047V82ZM218 12C237.33 12 253 27.67 253 47C253 66.33 237.33 82 218 82C198.67 82 183 66.33 183 47C183 27.67 198.67 12 218 12ZM2.66895 81H17.6924L38.168 34.1982L38.9023 34.5195L40 34L48.5264 52H49V54H31.6875L26 67H55L60.5996 81H77.1016L47.4492 15H33.2773L2.66895 81ZM283 81H289.5L288.5 19.543L288.477 18.125L289.384 19.2139L335.5 74.5801V15H328.5V53.5H324.485L324.187 53.0811L296.985 15H283V81ZM336.5 77.3438L335.616 76.2822L289.522 20.9424L290.5 80.9922L290 81H296.5V39.5303L298.296 41.8955L327.995 81H342V15H336.5V77.3438ZM218 14C199.775 14 185 28.7746 185 47C185 65.2254 199.775 80 218 80C236.225 80 251 65.2254 251 47C251 28.7746 236.225 14 218 14ZM58.5654 60.5166L59.75 62.7666L68.4424 79.2666L67.5576 79.7334L58.8652 63.2334L57.8213 61.25H38.5V60.25H57.2939L56.4951 58.7334L38.6406 24.8408L12.4482 77.7217L11.5518 77.2783L38.0518 23.7783L38.0908 23.7979L38.0576 23.7334L38.9424 23.2666L58.5654 60.5166ZM399.766 18.6074C394.203 16.6321 388.185 16.4832 382.537 18.1807L382.01 18.3447C376.578 20.0955 371.773 23.4877 368.216 28.0898L367.876 28.5381C364.411 33.2037 362.372 38.8383 362.027 44.7188L361.999 45.2871C361.765 51.1647 363.237 56.9858 366.231 61.998C369.322 67.1716 373.884 71.2309 379.293 73.6201C384.533 75.9347 390.319 76.5727 395.905 75.458L396.445 75.3438C401.998 74.1204 407.066 71.2126 411.006 67H411V50H391.85V54.1504H405.35V63.0449L405.604 63.3594C402.487 66.258 398.655 68.1344 394.566 68.7646C390.478 69.3948 386.307 68.752 382.552 66.9131C378.796 65.074 375.615 62.1166 373.389 58.3945C371.163 54.6725 369.987 50.3433 370 45.9248C370.014 41.5063 371.216 37.1849 373.465 33.4785C375.713 29.7721 378.913 26.8371 382.68 25.0244C386.447 23.2117 390.622 22.598 394.706 23.2568C398.79 23.9157 402.61 25.8198 405.71 28.7402L405.658 28.8018L409.955 32.3174L413.3 28.7754C409.986 24.2188 405.464 20.7534 400.285 18.7979L399.766 18.6074ZM376.411 23.959C373.326 26.7517 370.849 30.1892 369.145 34.0449C367.44 37.9005 366.546 42.086 366.522 46.3252C366.499 50.5645 367.345 54.7617 369.006 58.6377C370.667 62.5135 373.105 65.981 376.158 68.8105L375.811 69.2119C372.702 66.3314 370.22 62.8012 368.529 58.8555C366.838 54.9098 365.977 50.6379 366.001 46.3223C366.025 42.0067 366.935 37.7454 368.67 33.8203C370.405 29.8953 372.927 26.3956 376.067 23.5527L376.411 23.959ZM185.838 27.3965C182.302 33.5231 180.543 40.6101 180.78 47.7812C181.017 54.9524 183.24 61.8932 187.172 67.7441L186.554 68.209C182.535 62.2301 180.264 55.1376 180.021 47.8096C179.779 40.4815 181.576 33.2391 185.189 26.9785L185.838 27.3965ZM250.811 26.9785C254.424 33.2391 256.221 40.4815 255.979 47.8096C255.736 55.1376 253.465 62.2301 249.446 68.209L248.828 67.7441C252.76 61.8932 254.983 54.9524 255.22 47.7812C255.457 40.6101 253.698 33.5231 250.162 27.3965L250.811 26.9785ZM219 27C219.552 27 220 27.4477 220 28V67C220 67.5523 219.552 68 219 68H216C215.448 68 215 67.5523 215 67V28C215 27.4477 215.448 27 216 27H219ZM211 34C211.552 34 212 34.4477 212 35V57C212 57.5523 211.552 58 211 58H208C207.448 58 207 57.5523 207 57V35C207 34.4477 207.448 34 208 34H211ZM227 34C227.552 34 228 34.4477 228 35V57C228 57.5523 227.552 58 227 58H224C223.448 58 223 57.5523 223 57V35C223 34.4477 223.448 34 224 34H227ZM203 41C203.552 41 204 41.4477 204 42V52C204 52.5523 203.552 53 203 53H201C200.448 53 200 52.5523 200 52V42C200 41.4477 200.448 41 201 41H203ZM234 41C234.552 41 235 41.4477 235 42V52C235 52.5523 234.552 53 234 53H232C231.448 53 231 52.5523 231 52V42C231 41.4477 231.448 41 232 41H234ZM32.5625 52H46.3125L39.1641 36.9092L32.5625 52ZM195 43C196.105 43 197 43.8954 197 45V49C197 50.1046 196.105 51 195 51C193.895 51 193 50.1046 193 49V45C193 43.8954 193.895 43 195 43ZM240 43C241.105 43 242 43.8954 242 45V49C242 50.1046 241.105 51 240 51C238.895 51 238 50.1046 238 49V45C238 43.8954 238.895 43 240 43Z" fill="black"/>
<circle cx="217.5" cy="46.5" r="45.25" stroke="black" stroke-width="2.5"/>
<circle cx="218" cy="47" r="34" stroke="black" stroke-width="2"/>
<path d="M299 156V101H274H324" stroke="black"/>
<path d="M292.178 156H306.317L306.822 108L309.851 106H325V96H274V106H290.158L292.178 107.5V156Z" stroke="black" stroke-width="2"/>
<path d="M167 130L174.708 125M174.708 125H204M174.708 125L167 118" stroke="black"/>
<path d="M208 150.5H170L167 147V104L171.5 100.5H207.5" stroke="black"/>
<path d="M162 96H207.5V106H176.5V119H204V130.5H175.5V145.5H208.5V155.5H162V96Z" stroke="black" stroke-width="2"/>
<path d="M114.5 109V115.5H133.5L134.5 113V111L133.5 109H114.5Z" stroke="black" stroke-width="2"/>
<path d="M100 95.5V155H132.5H139.5L145.5 151.5L148 148.5L151.5 143.5V139.5V135.5V132.5L150 131L148 128.5L145.5 126.5L143 124L145.5 122L148 119.5L150 116V113V109.5L148 104.5L143 99L138 95.5H100Z" stroke="black" stroke-width="2"/>
<path d="M411.5 67V49.5H391" stroke="black"/>
<path d="M418.5 24L410 33L404.5 28.5" stroke="black"/>
<path d="M290 81L289 19.5344L336 75.9618V15" stroke="black"/>
<path d="M282 82V14H297.5L325 52.5H327.5V14H343V82H327.5L297.5 42.5V82H282Z" stroke="black" stroke-width="2"/>
<path d="M94 83.5V22L119.5 64.5H124.5L147.5 22L150 83.5" stroke="black"/>
<path d="M86.5 83V15.5H103.5L122.5 46.5L141.5 15.5H158V83H141.5V44.5L125.5 70.5H116.5L101.5 44.5V83H86.5Z" stroke="black" stroke-width="2"/>
<path d="M38.5 24L12 77.5" stroke="black"/>
<path d="M68 79.5L59.308 63L58.1228 60.75M58.1228 60.75L56.9375 58.5L38.5 23.5L58.1228 60.75ZM58.1228 60.75H38.5" stroke="black"/>
<rect x="193" y="43" width="4" height="8" rx="2" fill="black"/>
<rect x="200" y="41" width="4" height="12" rx="1" fill="black"/>
<rect x="207" y="34" width="5" height="24" rx="1" fill="black"/>
<rect x="215" y="27" width="5" height="41" rx="1" fill="black"/>
<rect x="223" y="34" width="5" height="24" rx="1" fill="black"/>
<rect x="231" y="41" width="4" height="12" rx="1" fill="black"/>
<rect x="238" y="43" width="4" height="8" rx="2" fill="black"/>
<circle cx="217.5" cy="46.5" r="41" stroke="black"/>
<mask id="path-27-inside-1_151_90" fill="white">
<path d="M250.811 26.9785C254.424 33.2391 256.221 40.4815 255.978 47.8095C255.736 55.1375 253.465 62.2297 249.447 68.2087L248.828 67.7444C252.76 61.8933 254.982 54.9528 255.22 47.7815C255.457 40.6102 253.699 33.5227 250.162 27.396L250.811 26.9785Z"/>
</mask>
<path d="M250.811 26.9785C254.424 33.2391 256.221 40.4815 255.978 47.8095C255.736 55.1375 253.465 62.2297 249.447 68.2087L248.828 67.7444C252.76 61.8933 254.982 54.9528 255.22 47.7815C255.457 40.6102 253.699 33.5227 250.162 27.396L250.811 26.9785Z" stroke="black" stroke-width="1.6" mask="url(#path-27-inside-1_151_90)"/>
<mask id="path-28-inside-2_151_90" fill="white">
<path d="M185.189 26.9785C181.576 33.2391 179.779 40.4815 180.022 47.8095C180.264 55.1375 182.535 62.2297 186.553 68.2087L187.172 67.7444C183.24 61.8933 181.018 54.9528 180.78 47.7815C180.543 40.6102 182.301 33.5227 185.838 27.396L185.189 26.9785Z"/>
</mask>
<path d="M185.189 26.9785C181.576 33.2391 179.779 40.4815 180.022 47.8095C180.264 55.1375 182.535 62.2297 186.553 68.2087L187.172 67.7444C183.24 61.8933 181.018 54.9528 180.78 47.7815C180.543 40.6102 182.301 33.5227 185.838 27.396L185.189 26.9785Z" stroke="black" stroke-width="1.6" mask="url(#path-28-inside-2_151_90)"/>
<mask id="path-29-inside-3_151_90" fill="white">
<path d="M180.189 26.9785C176.576 33.2391 174.779 40.4815 175.022 47.8095C175.264 55.1375 177.535 62.2297 181.553 68.2087L182.692 67.355C178.831 61.6112 176.65 54.7979 176.417 47.758C176.184 40.7181 177.91 33.7606 181.381 27.7462L180.189 26.9785Z"/>
</mask>
<path d="M180.189 26.9785C176.576 33.2391 174.779 40.4815 175.022 47.8095C175.264 55.1375 177.535 62.2297 181.553 68.2087L182.692 67.355C178.831 61.6112 176.65 54.7979 176.417 47.758C176.184 40.7181 177.91 33.7606 181.381 27.7462L180.189 26.9785Z" stroke="black" stroke-width="1.6" mask="url(#path-29-inside-3_151_90)"/>
<mask id="path-30-inside-4_151_90" fill="white">
<path d="M254.811 26.9785C258.424 33.2391 260.221 40.4815 259.978 47.8095C259.736 55.1375 257.465 62.2297 253.447 68.2087L252.308 67.355C256.169 61.6112 258.35 54.7979 258.583 47.758C258.816 40.7181 257.09 33.7606 253.619 27.7462L254.811 26.9785Z"/>
</mask>
<path d="M254.811 26.9785C258.424 33.2391 260.221 40.4815 259.978 47.8095C259.736 55.1375 257.465 62.2297 253.447 68.2087L252.308 67.355C256.169 61.6112 258.35 54.7979 258.583 47.758C258.816 40.7181 257.09 33.7606 253.619 27.7462L254.811 26.9785Z" stroke="black" stroke-width="1.6" mask="url(#path-30-inside-4_151_90)"/>
<line x1="47.9122" y1="13.5902" x2="78.9122" y2="82.5902" stroke="black" stroke-width="2"/>
<line x1="47.9122" y1="13.5902" x2="78.9122" y2="82.5902" stroke="black" stroke-width="2"/>
<line x1="19" y1="82" x2="-2.54277e-07" y2="82" stroke="black" stroke-width="2"/>
<line x1="78" y1="82" x2="59" y2="82" stroke="black" stroke-width="2"/>
<line x1="55" y1="68" x2="24" y2="68" stroke="black" stroke-width="2"/>
<line x1="60.0715" y1="82.3714" x2="54.0715" y2="67.3714" stroke="black" stroke-width="2"/>
<line x1="18.0838" y1="82.5992" x2="39.0838" y2="34.5992" stroke="black" stroke-width="2"/>
<line x1="49" y1="14" x2="32" y2="14" stroke="black" stroke-width="2"/>
<line x1="32.9072" y1="13.4207" x2="0.907189" y2="82.4207" stroke="black" stroke-width="2"/>
<line x1="32.9072" y1="13.4207" x2="0.907189" y2="82.4207" stroke="black" stroke-width="2"/>
<line x1="48.0963" y1="53.4281" x2="39.0963" y2="34.4281" stroke="black" stroke-width="2"/>
<line x1="31" y1="53" x2="49" y2="53" stroke="black" stroke-width="2"/>
<mask id="path-41-inside-5_151_90" fill="white">
<path d="M418.11 70.0713C413.442 76.1736 407.079 80.5752 399.917 82.6565C392.756 84.7378 385.157 84.3939 378.19 81.6732C371.223 78.9526 365.24 73.9921 361.082 67.4905C356.925 60.9888 354.803 53.2733 355.014 45.4306C355.226 37.5878 357.761 30.0127 362.263 23.772C366.765 17.5313 373.006 12.9393 380.108 10.6426C387.211 8.3459 394.816 8.46021 401.853 10.9694C408.891 13.4787 415.006 18.2564 419.338 24.6299L417.864 25.7471C413.754 19.6992 407.951 15.1655 401.273 12.7845C394.595 10.4034 387.379 10.295 380.639 12.4743C373.9 14.6537 367.977 19.0111 363.706 24.933C359.434 30.8549 357.028 38.043 356.827 45.4852C356.626 52.9273 358.64 60.2486 362.585 66.4182C366.53 72.5877 372.208 77.2947 378.819 79.8764C385.43 82.4582 392.64 82.7845 399.436 80.8095C406.232 78.8345 412.27 74.6577 416.7 68.8672L418.11 70.0713Z"/>
</mask>
<path d="M418.11 70.0713C413.442 76.1736 407.079 80.5752 399.917 82.6565C392.756 84.7378 385.157 84.3939 378.19 81.6732C371.223 78.9526 365.24 73.9921 361.082 67.4905C356.925 60.9888 354.803 53.2733 355.014 45.4306C355.226 37.5878 357.761 30.0127 362.263 23.772C366.765 17.5313 373.006 12.9393 380.108 10.6426C387.211 8.3459 394.816 8.46021 401.853 10.9694C408.891 13.4787 415.006 18.2564 419.338 24.6299L417.864 25.7471C413.754 19.6992 407.951 15.1655 401.273 12.7845C394.595 10.4034 387.379 10.295 380.639 12.4743C373.9 14.6537 367.977 19.0111 363.706 24.933C359.434 30.8549 357.028 38.043 356.827 45.4852C356.626 52.9273 358.64 60.2486 362.585 66.4182C366.53 72.5877 372.208 77.2947 378.819 79.8764C385.43 82.4582 392.64 82.7845 399.436 80.8095C406.232 78.8345 412.27 74.6577 416.7 68.8672L418.11 70.0713Z" stroke="black" stroke-width="4" mask="url(#path-41-inside-5_151_90)"/>
<mask id="path-42-inside-6_151_90" fill="white">
<path d="M405.604 63.3593C402.487 66.258 398.655 68.1346 394.567 68.7648C390.478 69.3951 386.307 68.7522 382.551 66.9131C378.796 65.074 375.615 62.1166 373.389 58.3945C371.163 54.6724 369.987 50.3431 370 45.9246C370.014 41.506 371.217 37.1851 373.465 33.4787C375.714 29.7723 378.913 26.8372 382.68 25.0245C386.447 23.2118 390.622 22.5983 394.706 23.2572C398.79 23.9161 402.611 25.8196 405.71 28.74L404.984 29.6217C402.043 26.8505 398.418 25.0442 394.542 24.419C390.667 23.7937 386.705 24.376 383.13 26.096C379.556 27.8161 376.52 30.6013 374.387 34.1183C372.253 37.6354 371.111 41.7356 371.098 45.9284C371.086 50.1213 372.202 54.2293 374.314 57.7613C376.426 61.2933 379.445 64.0997 383.009 65.8448C386.572 67.5899 390.531 68.2 394.41 67.6019C398.289 67.0039 401.926 65.2231 404.884 62.4725L405.604 63.3593Z"/>
</mask>
<path d="M405.604 63.3593C402.487 66.258 398.655 68.1346 394.567 68.7648C390.478 69.3951 386.307 68.7522 382.551 66.9131C378.796 65.074 375.615 62.1166 373.389 58.3945C371.163 54.6724 369.987 50.3431 370 45.9246C370.014 41.506 371.217 37.1851 373.465 33.4787C375.714 29.7723 378.913 26.8372 382.68 25.0245C386.447 23.2118 390.622 22.5983 394.706 23.2572C398.79 23.9161 402.611 25.8196 405.71 28.74L404.984 29.6217C402.043 26.8505 398.418 25.0442 394.542 24.419C390.667 23.7937 386.705 24.376 383.13 26.096C379.556 27.8161 376.52 30.6013 374.387 34.1183C372.253 37.6354 371.111 41.7356 371.098 45.9284C371.086 50.1213 372.202 54.2293 374.314 57.7613C376.426 61.2933 379.445 64.0997 383.009 65.8448C386.572 67.5899 390.531 68.2 394.41 67.6019C398.289 67.0039 401.926 65.2231 404.884 62.4725L405.604 63.3593Z" stroke="black" stroke-width="4.4" mask="url(#path-42-inside-6_151_90)"/>
<path d="M404.5 63.5V55H391V44H419L417 70" stroke="black" stroke-width="1.7"/>
<mask id="path-44-inside-7_151_90" fill="white">
<path d="M412.143 67.2255C408.009 71.8395 402.597 75.0195 396.648 76.3302C390.699 77.641 384.503 77.0182 378.91 74.5473C373.316 72.0764 368.598 67.8781 365.401 62.5274C362.205 57.1768 360.686 50.9353 361.054 44.6578C361.421 38.3802 363.657 32.3736 367.454 27.4605C371.251 22.5473 376.424 18.9679 382.265 17.2124C388.106 15.4569 394.329 15.6111 400.082 17.6539C405.835 19.6967 410.837 23.5283 414.402 28.6239L413.612 29.2148C410.165 24.2876 405.328 20.5827 399.766 18.6074C394.203 16.6321 388.185 16.483 382.537 18.1805C376.89 19.878 371.887 23.3391 368.216 28.0898C364.544 32.8406 362.382 38.6486 362.027 44.7187C361.672 50.7887 363.14 56.8238 366.231 61.9977C369.322 67.1715 373.884 71.231 379.293 73.6202C384.701 76.0094 390.692 76.6116 396.445 75.3442C402.198 74.0768 407.431 71.0019 411.427 66.5404L412.143 67.2255Z"/>
</mask>
<path d="M412.143 67.2255C408.009 71.8395 402.597 75.0195 396.648 76.3302C390.699 77.641 384.503 77.0182 378.91 74.5473C373.316 72.0764 368.598 67.8781 365.401 62.5274C362.205 57.1768 360.686 50.9353 361.054 44.6578C361.421 38.3802 363.657 32.3736 367.454 27.4605C371.251 22.5473 376.424 18.9679 382.265 17.2124C388.106 15.4569 394.329 15.6111 400.082 17.6539C405.835 19.6967 410.837 23.5283 414.402 28.6239L413.612 29.2148C410.165 24.2876 405.328 20.5827 399.766 18.6074C394.203 16.6321 388.185 16.483 382.537 18.1805C376.89 19.878 371.887 23.3391 368.216 28.0898C364.544 32.8406 362.382 38.6486 362.027 44.7187C361.672 50.7887 363.14 56.8238 366.231 61.9977C369.322 67.1715 373.884 71.231 379.293 73.6202C384.701 76.0094 390.692 76.6116 396.445 75.3442C402.198 74.0768 407.431 71.0019 411.427 66.5404L412.143 67.2255Z" stroke="black" stroke-width="1.6" mask="url(#path-44-inside-7_151_90)"/>
<mask id="path-45-inside-8_151_90" fill="white">
<path d="M375.81 69.2118C372.702 66.3313 370.22 62.8015 368.529 58.8558C366.838 54.91 365.976 50.6382 366 46.3225C366.025 42.0069 366.935 37.7457 368.67 33.8206C370.405 29.8954 372.927 26.3958 376.067 23.5528L376.411 23.9586C373.326 26.7513 370.849 30.1891 369.144 34.0448C367.44 37.9005 366.546 42.0863 366.522 46.3257C366.498 50.565 367.345 54.7613 369.006 58.6373C370.667 62.5132 373.105 65.9806 376.158 68.8102L375.81 69.2118Z"/>
</mask>
<path d="M375.81 69.2118C372.702 66.3313 370.22 62.8015 368.529 58.8558C366.838 54.91 365.976 50.6382 366 46.3225C366.025 42.0069 366.935 37.7457 368.67 33.8206C370.405 29.8954 372.927 26.3958 376.067 23.5528L376.411 23.9586C373.326 26.7513 370.849 30.1891 369.144 34.0448C367.44 37.9005 366.546 42.0863 366.522 46.3257C366.498 50.565 367.345 54.7613 369.006 58.6373C370.667 62.5132 373.105 65.9806 376.158 68.8102L375.81 69.2118Z" stroke="black" stroke-width="2.4" mask="url(#path-45-inside-8_151_90)"/>
<path d="M115 134V140.5H134L135 138V136L134 134H115Z" stroke="black" stroke-width="2"/>
<line x1="236.874" y1="93.7216" x2="208.421" y2="155.073" stroke="black" stroke-width="2"/>
<line x1="236.874" y1="93.7216" x2="208.421" y2="155.073" stroke="black" stroke-width="2"/>
<line x1="252" y1="95" x2="237" y2="95" stroke="black" stroke-width="2"/>
<line x1="250.216" y1="93.7802" x2="277.78" y2="155.132" stroke="black" stroke-width="2"/>
<line x1="250.216" y1="93.7802" x2="277.78" y2="155.132" stroke="black" stroke-width="2"/>
<path d="M268 153L260.634 138.268L259.629 136.259M259.629 136.259L258.625 134.25L243 103L259.629 136.259ZM259.629 136.259H243" stroke="black"/>
<path d="M243 103L218 151" stroke="black"/>
<line x1="250.179" y1="129.295" x2="243.984" y2="111.545" stroke="black" stroke-width="2"/>
<line x1="223.492" y1="155.141" x2="243.996" y2="113.263" stroke="black" stroke-width="2"/>
<line x1="236" y1="129" x2="252" y2="131" stroke="black" stroke-width="2"/>
<line x1="256" y1="143" x2="228" y2="141" stroke="black" stroke-width="2"/>
<line x1="260.823" y1="155.024" x2="257.346" y2="140.944" stroke="black" stroke-width="2"/>
<line x1="223" y1="156" x2="207" y2="154" stroke="black" stroke-width="2"/>
<line x1="281" y1="158" x2="264" y2="154" stroke="black" stroke-width="2"/>
<circle cx="217.5" cy="46.5" r="41" stroke="black"/>
<mask id="path-60-inside-9_151_90" fill="white">
<path d="M180.189 26.9785C176.576 33.2391 174.779 40.4815 175.022 47.8095C175.264 55.1375 177.535 62.2297 181.553 68.2087L182.692 67.355C178.831 61.6112 176.65 54.7979 176.417 47.758C176.184 40.7181 177.91 33.7606 181.381 27.7462L180.189 26.9785Z"/>
</mask>
<path d="M180.189 26.9785C176.576 33.2391 174.779 40.4815 175.022 47.8095C175.264 55.1375 177.535 62.2297 181.553 68.2087L182.692 67.355C178.831 61.6112 176.65 54.7979 176.417 47.758C176.184 40.7181 177.91 33.7606 181.381 27.7462L180.189 26.9785Z" stroke="black" stroke-width="1.6" mask="url(#path-60-inside-9_151_90)"/>
<mask id="path-61-inside-10_151_90" fill="white">
<path d="M185.189 26.9785C181.576 33.2391 179.779 40.4815 180.022 47.8095C180.264 55.1375 182.535 62.2297 186.553 68.2087L187.172 67.7444C183.24 61.8933 181.018 54.9528 180.78 47.7815C180.543 40.6102 182.301 33.5227 185.838 27.396L185.189 26.9785Z"/>
</mask>
<path d="M185.189 26.9785C181.576 33.2391 179.779 40.4815 180.022 47.8095C180.264 55.1375 182.535 62.2297 186.553 68.2087L187.172 67.7444C183.24 61.8933 181.018 54.9528 180.78 47.7815C180.543 40.6102 182.301 33.5227 185.838 27.396L185.189 26.9785Z" stroke="black" stroke-width="1.6" mask="url(#path-61-inside-10_151_90)"/>
<mask id="path-62-inside-11_151_90" fill="white">
<path d="M250.811 26.9785C254.424 33.2391 256.221 40.4815 255.978 47.8095C255.736 55.1375 253.465 62.2297 249.447 68.2087L248.828 67.7444C252.76 61.8933 254.982 54.9528 255.22 47.7815C255.457 40.6102 253.699 33.5227 250.162 27.396L250.811 26.9785Z"/>
</mask>
<path d="M250.811 26.9785C254.424 33.2391 256.221 40.4815 255.978 47.8095C255.736 55.1375 253.465 62.2297 249.447 68.2087L248.828 67.7444C252.76 61.8933 254.982 54.9528 255.22 47.7815C255.457 40.6102 253.699 33.5227 250.162 27.396L250.811 26.9785Z" stroke="black" stroke-width="1.6" mask="url(#path-62-inside-11_151_90)"/>
<mask id="path-63-inside-12_151_90" fill="white">
<path d="M254.811 26.9785C258.424 33.2391 260.221 40.4815 259.978 47.8095C259.736 55.1375 257.465 62.2297 253.447 68.2087L252.308 67.355C256.169 61.6112 258.35 54.7979 258.583 47.758C258.816 40.7181 257.09 33.7606 253.619 27.7462L254.811 26.9785Z"/>
</mask>
<path d="M254.811 26.9785C258.424 33.2391 260.221 40.4815 259.978 47.8095C259.736 55.1375 257.465 62.2297 253.447 68.2087L252.308 67.355C256.169 61.6112 258.35 54.7979 258.583 47.758C258.816 40.7181 257.09 33.7606 253.619 27.7462L254.811 26.9785Z" stroke="black" stroke-width="1.6" mask="url(#path-63-inside-12_151_90)"/>
<rect x="215" y="27" width="5" height="41" rx="1" fill="black"/>
<rect x="207" y="34" width="5" height="24" rx="1" fill="black"/>
<rect x="223" y="34" width="5" height="24" rx="1" fill="black"/>
<rect x="200" y="41" width="4" height="12" rx="1" fill="black"/>
<rect x="231" y="41" width="4" height="12" rx="1" fill="black"/>
<rect x="193" y="43" width="4" height="8" rx="2" fill="black"/>
<rect x="238" y="43" width="4" height="8" rx="2" fill="black"/>
<path d="M136 124H108.5L105 119.5V102L107.5 100H137.5L143.5 107V115.5L136 124ZM136 124L143.5 129.5L146 132.5V142.5L143.5 145.5L140.5 147H111.5H105V128L108 124" stroke="black"/>
</svg>
